# xmcd
# 
# Track frame offsets:
#     150
#     10166
#     25953
#     37999
#     53458
#     68493
#     83322
#     97626
#     109646
#     117118
#     127556
#     146227
#     159335
#     173786
#     192948
#     204819
#     219228
#     230209
#     243132
#     261426
#     272127
#     289281
#     300523
# 
# Disc length: 4201
# 
# Revision: 1
# Processed by: cddbd v1.5.2PL0 Copyright (c) Steve Scherf et al.
# Submitted via: fre:ac v1.0.31
# 
DISCID=21106717
DTITLE=MTJ - Eesti kullafond CD1
DYEAR=2016
DGENRE=Country
TTITLE0=Kes ta on?
TTITLE1=Rukkilill
TTITLE2=Tiina, Tiina
TTITLE3=Hilisıhtune ratsanik
TTITLE4=Kihnu Jınn
TTITLE5=Perekonnapea
TTITLE6=El Dorado
TTITLE7=Armastus on elulust
TTITLE8=Texase kaunitar
TTITLE9=Tuled t‰navail
TTITLE10=Mul on auto, mul on rool
TTITLE11=Kambrike
TTITLE12=Kartulikombaini peal
TTITLE13=Vana limusiin
TTITLE14=Kauboi
TTITLE15=Veidi
TTITLE16=Traktorist
TTITLE17=Korraks vaid
TTITLE18=Lilled peos
TTITLE19=’nnelik mees
TTITLE20=Armastus j‰‰b
TTITLE21=Marta
TTITLE22=Priidu
EXTD=
EXTT0=
EXTT1=
EXTT2=
EXTT3=
EXTT4=
EXTT5=
EXTT6=
EXTT7=
EXTT8=
EXTT9=
EXTT10=
EXTT11=
EXTT12=
EXTT13=
EXTT14=
EXTT15=
EXTT16=
EXTT17=
EXTT18=
EXTT19=
EXTT20=
EXTT21=
EXTT22=
PLAYORDER=
